<?xml version="1.0" standalone="no"?><!DOCTYPE svg PUBLIC "-//W3C//DTD SVG 1.1//EN" "http://www.w3.org/Graphics/SVG/1.1/DTD/svg11.dtd"><svg class="icon" width="200px" height="200.00px" viewBox="0 0 1024 1024" version="1.1" xmlns="http://www.w3.org/2000/svg"><path fill="#FFFFFF" d="M925.789091 425.658182a150.341818 150.341818 0 0 1-52.596364 113.570909 10.007273 10.007273 0 0 1 0 2.56v276.945454a75.403636 75.403636 0 0 1-75.403636 75.403637h-553.890909a75.636364 75.636364 0 0 1-75.636364-75.403637v-276.945454-2.56A150.109091 150.109091 0 0 1 116.363636 425.658182C116.363636 418.909091 116.363636 418.909091 206.429091 179.432727A64.698182 64.698182 0 0 1 264.378182 139.636364h513.396363a64.698182 64.698182 0 0 1 57.949091 40.029091C925.789091 418.909091 925.789091 418.909091 925.789091 425.658182z m-656.989091-186.181818a25.134545 25.134545 0 0 0 0 50.269091h504.32a25.134545 25.134545 0 0 0 0-50.269091z m554.589091 579.258181V568.32a148.712727 148.712727 0 0 1-50.967273 9.309091 186.181818 186.181818 0 0 1-128.698182-55.621818 164.538182 164.538182 0 0 1-121.949091 55.621818A188.509091 188.509091 0 0 1 395.636364 522.24a165.701818 165.701818 0 0 1-125.207273 55.389091 150.109091 150.109091 0 0 1-51.2-9.309091v250.414545a25.134545 25.134545 0 0 0 25.367273 25.134546H798.254545a25.134545 25.134545 0 0 0 25.134546-25.134546z" /></svg>
